mastitorrents.com
 
http://mastitorrents.com/forums/index.php
 
http://thepiratebay.se/user/HDvideos/0/7

The Scorpion King 3 Battle for Redemption (2012) BRRip 720p x264 Dual Audio[Hindi-Eng]@Mastitorrents

Format : Matroska
Format version : Version 2
File size : 1.56 GiB
Duration : 1h 45mn
Overall bit rate : 2 118 Kbps
Encoded date : UTC 2012-02-13 06:10:12
Writing application : mkvmerge v5.2.1 ('A Far Off Place') built on Jan 2 2012 23:21:10
Writing library : libebml v1.2.3 + libmatroska v1.3.0

Video
ID : 1
Format : AVC
Format/Info : Advanced Video Codec
Format profile : High@L4.0
Format settings, CABAC : Yes
Format settings, ReFrames : 8 frames
Muxing mode : Header stripping
Codec ID : V_MPEG4/ISO/AVC
Duration : 1h 45mn
Bit rate : 891 Kbps
Width : 1 280 pixels
Height : 720 pixels
Display aspect ratio : 16:9
Frame rate : 23.976 fps
Color space : YUV
Chroma subsampling : 4:2:0
Bit depth : 8 bits
Scan type : Progressive
Bits/(Pixel*Frame) : 0.040
Stream size : 659 MiB (41%)
Writing library : x264 core 120 r2120 0c7dab9
Language : English

Audio #1
ID : 2
Format : DTS
Format/Info : Digital Theater Systems
Muxing mode : Header stripping
Codec ID : A_DTS
Duration : 1h 45mn
Bit rate mode : Constant
Bit rate : 755 Kbps
Channel(s) : 6 channels
Channel positions : Front: L C R, Side: L R, LFE
Sampling rate : 48.0 KHz
Bit depth : 16 bits
Compression mode : Lossy
Stream size : 569 MiB (36%)
Title : Hindi
Language : Hindi

Audio #2
ID : 3
Format : AC-3
Format/Info : Audio Coding 3
Mode extension : CM (complete main)
Muxing mode : Header stripping
Codec ID : A_AC3
Duration : 1h 45mn
Bit rate mode : Constant
Bit rate : 448 Kbps
Channel(s) : 6 channels
Channel positions : Front: L C R, Side: L R, LFE
Sampling rate : 48.0 KHz
Bit depth : 16 bits
Compression mode : Lossy
Stream size : 338 MiB (21%)
Title : English
Language : English

Text #1
ID : 4
Format : PGS
Muxing mode : zlib
Codec ID : S_HDMV/PGS
Codec ID/Info : The same subtitle format used on BDs/HD-DVDs
Title : English
Language : English

Text #2
ID : 5
Format : PGS
Muxing mode : zlib
Codec ID : S_HDMV/PGS
Codec ID/Info : The same subtitle format used on BDs/HD-DVDs
Title : Hindi
Language : Hindi

Note:
IF u have any problem in viewing the screenshot,copy the link,open new tab and paste the link